# xmcd
#
# Track frame offsets: 
#        150
#        13212
#        29837
#        43887
#        57300
#        68237
#        81650
#        95037
#        106925
#        119225
#        136575
#        147425
#        161737
#        175950
#        188237
#        199475
#        212950
#        228437
#        241550
#        256137
#
# Disc length: 3632 seconds
#
# Revision: 0
# Processed by: cddbd v1.5PL3 Copyright (c) Steve Scherf et al.
# Submitted via: ExactAudioCopy v0.95a5
#
DISCID=370e2e14
DTITLE=Tammy Wynette - Legendary Tammy Wynette (disk3)
DYEAR=1900
DGENRE=
TTITLE0=My Elusive Dreams
TTITLE1=Sometimes When We Touch
TTITLE2=Your Love
TTITLE3=Beneath A Painted Sky
TTITLE4=Silver Threads And Golden Needles
TTITLE5=One Of These Days
TTITLE6=Almost Persuaded
TTITLE7=Jackson Ain't A Very Big Town
TTITLE8=Help Me Make It Through The Night
TTITLE9=I Don't Think About Him No More
TTITLE10=Singing My Song
TTITLE11=Crying In The Rain
TTITLE12=Starting Over
TTITLE13=Another Chance
TTITLE14=Let's Get Together
TTITLE15=Cowboys Don't Shoot Straight
TTITLE16=Talkin' To Myself Again
TTITLE17=You Left Memories Layin' All Over The Place
TTITLE18=Unwed Fathers
TTITLE19=Justified And Ancient
EXTD=
EXTT0=
EXTT1=
EXTT2=
EXTT3=
EXTT4=
EXTT5=
EXTT6=
EXTT7=
EXTT8=
EXTT9=
EXTT10=
EXTT11=
EXTT12=
EXTT13=
EXTT14=
EXTT15=
EXTT16=
EXTT17=
EXTT18=
EXTT19=
PLAYORDER=
